<?xml version="1.0" encoding="utf-8"?>
<!-- Svg Vector Icons : http://www.onlinewebfonts.com/icon -->
<!DOCTYPE svg PUBLIC "-//W3C//DTD SVG 1.1//EN" "http://www.w3.org/Graphics/SVG/1.1/DTD/svg11.dtd">
<svg version="1.1" xmlns="http://www.w3.org/2000/svg" xmlns:xlink="http://www.w3.org/1999/xlink" x="0px" y="0px" viewBox="0 0 1000 1000" enable-background="new 0 0 1000 1000" xml:space="preserve">
<metadata> Svg Vector Icons : http://www.onlinewebfonts.com/icon </metadata>
<g><path d="M943.8,534l-181.9-92.1c-6.9-3.5-15.4-5.6-24.3-6.3c4.4-8.4,7.1-17.6,7.1-26.1l0.3-249.7c0-19.5-14-42.4-31.4-51.2L531.6,16.6c-17.4-8.8-45.6-8.9-63-0.1l-181,90.6c-17.4,8.7-31.5,31.6-31.5,51.1l0.2,251.3c0,8.4,2.6,17.6,7,25.9c-9.5,0.6-18.7,2.7-26,6.3l-181,90.6c-17.4,8.7-31.5,31.6-31.5,51.1l0.2,251.3c0,19.5,14,42.7,31.2,51.8l182.1,96.5c17.2,9.1,45.1,9.1,62.3,0l181.5-96.4c6.6-3.5,12.8-9.1,17.8-15.8c5.1,6.7,11.2,12.3,17.8,15.8l182.1,96.5c17.2,9.1,45.1,9.1,62.3,0l181.5-96.4c17.2-9.1,31.2-32.4,31.2-51.8l0.3-249.7C975.3,565.7,961.2,542.8,943.8,534z M296.3,195.9l176.5,86.9v232.8l-176.5-86.9V195.9z M241.4,940.8L64.9,854V621.2L241.4,708V940.8z M268.5,672.4l-202-100.6l202-100.6l202,100.6L268.5,672.4z M472.7,854l-176.5,86.9V708l177-87.7L472.7,854z M499.9,247.1l-202-100.6l202-100.6l202,100.6L499.9,247.1z M704.6,195L704,428.7l-176.5,86.9V282.7L704.6,195z M703,940.8L526.5,854V621.2L703,708V940.8z M730.2,672.4l-202-100.6l202-100.6l202,100.6L730.2,672.4z M934.3,854l-176.5,86.9V708l177-87.7L934.3,854z"/></g>
</svg>